HIERARCHY
ROOT ui
{
	 OFFSET 0 0 0
	 CHANNELS 3 XPosition YPosition Z Position
	 EndSite
	 {
	 OFFSET 0 -1 0
	 }
}
ROOT li
{
	 OFFSET 0 0 0
	 CHANNELS 3 XPosition YPosition Z Position
	 EndSite
	 {
	 OFFSET 0 -1 0
	 }
}
ROOT ul
{
	 OFFSET 0 0 0
	 CHANNELS 3 XPosition YPosition Z Position
	 EndSite
	 {
	 OFFSET 0 -1 0
	 }
}
ROOT ll
{
	 OFFSET 0 0 0
	 CHANNELS 3 XPosition YPosition Z Position
	 EndSite
	 {
	 OFFSET 0 -1 0
	 }
}
ROOT tt
{
	 OFFSET 0 0 0
	 CHANNELS 3 XPosition YPosition Z Position
	 EndSite
	 {
	 OFFSET 0 -1 0
	 }
}
ROOT tb
{
	 OFFSET 0 0 0
	 CHANNELS 3 XPosition YPosition Z Position
	 EndSite
	 {
	 OFFSET 0 -1 0
	 }
}
ROOT td
{
	 OFFSET 0 0 0
	 CHANNELS 3 XPosition YPosition Z Position
	 EndSite
	 {
	 OFFSET 0 -1 0
	 }
}
ROOT v
{
	 OFFSET 0 0 0
	 CHANNELS 3 XPosition YPosition Z Position
	 EndSite
	 {
	 OFFSET 0 -1 0
	 }
}
ROOT bn
{
	 OFFSET 0 0 0
	 CHANNELS 3 XPosition YPosition Z Position
	 EndSite
	 {
	 OFFSET 0 -1 0
	 }
}
MOTION
Frames: 18
Frame Time: 0.002
0.0019098939895629884	-3.8924899697303773E-4	0		0.5230275268554687	-2.515016845703125	0		-1.05451953125	0.03919593811035156	0		-0.85728857421875	-2.569140625	0		1.3496658935546875	-0.7447827758789063	0		3.137243408203125	-0.11648291778564453	0		4.61291796875	-0.09622303009033203	0		5.55167529296875	0.08752622985839843	0		-0.006896515846252441	5.9649140625	0		
-0.024606212615966797	4.9421999603509904E-5	0		0.5066133422851562	-2.520725341796875	0		-1.0481422119140624	0.03390316390991211	0		-0.8216884155273437	-2.574978515625	0		1.3502098388671875	-0.7447496337890624	0		3.134635986328125	-0.12123421478271484	0		4.62648046875	-0.09215708923339844	0		5.560435546875	0.10276924133300781	0		-0.12515042114257813	5.95511865234375	0		
0.010846158981323243	-0.00271506404876709	0		0.5114361877441407	-2.515844482421875	0		-1.0425908203125	0.036623523712158206	0		-0.888712158203125	-2.561830322265625	0		1.3589666748046876	-0.7348700561523438	0		3.15306396484375	-0.12538249206542967	0		4.626986328125	-0.09182283782958985	0		5.57155517578125	0.08397978973388671	0		0.009165733337402344	5.97243017578125	0		
-0.016466497421264648	0.006734673023223877	0		0.5162561645507813	-2.511961669921875	0		-1.038009033203125	0.040361248016357425	0		-0.8130546264648437	-2.5674404296875	0		1.3595443115234376	-0.7348306274414063	0		3.15298828125	-0.10416027069091797	0		4.62750390625	-0.09147838592529296	0		5.57038330078125	0.10144768524169921	0		-0.11005274963378907	5.96463134765625	0		
0.006967122077941894	0.002208173990249634	0		0.5108762817382813	-2.518883056640625	0		-1.0484769287109375	0.041386890411376956	0		-0.852308349609375	-2.5678388671875	0		1.357072021484375	-0.7377300415039062	0		3.1451513671875	-0.1227913818359375	0		4.63317919921875	-0.08322322082519532	0		5.55779541015625	0.09713853454589844	0		-0.007083347797393799	5.96456591796875	0		
-0.013589306831359864	-0.001474874973297119	0		0.5116328735351563	-2.51891796875	0		-1.0520211181640624	0.03827959060668945	0		-0.78169287109375	-2.576333984375	0		1.3555828857421874	-0.7416455078125	0		3.139813232421875	-0.11546198272705079	0		4.63130419921875	-0.10382272338867188	0		5.554150390625	0.08966300964355468	0		0.0070697560310363766	5.975212890625	0		
0.004940008163452149	-8.978779911994934E-4	0		0.5103500061035157	-2.52091162109375	0		-1.04560693359375	0.03298529815673828	0		-0.8528252563476563	-2.570128173828125	0		1.3561673583984375	-0.7415966796875	0		3.146204345703125	-0.1223546142578125	0		4.62907421875	-0.09040586853027344	0		5.55880615234375	0.09803665924072266	0		-0.007194415092468261	5.9643994140625	0		
0.013408787727355957	-0.0031252479553222656	0		0.51519140625	-2.516016845703125	0		-1.0400467529296875	0.03571341323852539	0		-0.8500352783203124	-2.5683251953125	0		1.3588206787109376	-0.7375833740234375	0		3.146119140625	-0.1011173095703125	0		4.6295908203125	-0.09004236602783203	0		5.56826513671875	0.09631967926025391	0		-0.11027438354492188	5.9642607421875	0		
0.012057443618774415	0.004838622093200683	0		0.5159264526367188	-2.516041748046875	0		-1.039552001953125	0.03554203414916992	0		-0.8472581787109374	-2.566516357421875	0		1.3624439697265625	-0.7345856323242187	0		3.150326416015625	-0.1169666519165039	0		4.64109521484375	-0.0898859634399414	0		5.563923828125	0.10586259460449218	0		0.00786628007888794	5.97396435546875	0		
0.009484006881713867	0.0018276859521865845	0		0.5145858764648438	-2.519024658203125	0		-1.0390728759765624	0.03537744522094727	0		-0.8506123657226563	-2.570587890625	0		1.3578646240234375	-0.7414337768554687	0		3.17285302734375	-0.11515431213378906	0		4.630587890625	-0.08932038116455078	0		5.5602666015625	0.09938422393798828	0		0.007796430110931397	5.973896484375	0		
-0.015202155113220215	-0.005769336223602295	0		0.5132340698242187	-2.52100390625	0		-1.049578857421875	0.037424598693847656	0		-0.8519595336914062	-2.572690185546875	0		1.3583895263671875	-0.7413744506835938	0		3.142326904296875	-0.11435655975341796	0		4.63620166015625	-0.08106049346923828	0		5.5607158203125	0.09982195281982421	0		-0.007466331005096436	5.9641142578125	0		
-0.015629226684570313	0.0021894359588623047	0		0.513877197265625	-2.521016357421875	0		-1.0432509765625	0.032166656494140626	0		-0.8513118896484375	-2.572821044921875	0		1.35887841796875	-0.7413136596679688	0		3.142761474609375	-0.1141410903930664	0		4.631486328125	-0.08862181854248047	0		5.5610947265625	0.0982474594116211	0		-0.12477899169921874	5.95321875	0		
-0.015245733261108398	0.002137732028961182	0		0.49160122680664065	-2.51360302734375	0		-1.0378155517578125	0.03493783569335938	0		-0.846643310546875	-2.569015625	0		1.364450927734375	-0.7343451538085938	0		3.157986572265625	-0.12320661163330078	0		4.63187744140625	-0.08829043579101563	0		5.57046875	0.09849005126953125	0		-0.1097048110961914	5.962880859375	0		
-0.006926773071289062	9.470829963684082E-4	0		0.5211302490234375	-2.514138671875	0		-1.033406982421875	0.03874020004272461	0		-0.8440689086914063	-2.56716162109375	0		1.36791943359375	-0.7303380126953125	0		3.141740234375	-0.10069728851318359	0		4.63944140625	-0.07610430145263672	0		5.57492724609375	0.10580477142333984	0		0.008352749824523926	5.97166748046875	0		
-0.014614123344421387	0.00205649995803833	0		0.5195698852539062	-2.516099853515625	0		-1.0422427978515625	0.031794612884521484	0		-0.7757645874023438	-2.577496826171875	0		1.3621390380859375	-0.7371638793945312	0		3.1496748046875	-0.1206473388671875	0		4.63766748046875	-0.07976592254638672	0		5.5669404296875	0.09132230377197266	0		-0.12514858245849608	5.953060546875	0		
0.011630882263183593	0.0015548789501190186	0		0.5428409423828126	-2.524509521484375	0		-1.0419954833984375	0.03169547843933106	0		-0.8492736206054687	-2.573234375	0		1.3603662109375	-0.7410629272460938	0		3.144060546875	-0.1133542709350586	0		4.626923828125	-0.07927994537353515	0		5.5623662109375	0.10176071166992187	0		-0.14148199462890626	5.94331591796875	0		
-0.01330079174041748	-0.006012153148651123	0		0.51626953125	-2.52100830078125	0		-1.0417884521484375	0.03160759353637695	0		-0.8139968872070312	-2.578942626953125	0		1.357568603515625	-0.7439430541992188	0		3.165146728515625	-0.12055450439453125	0		4.61992236328125	-0.09087819671630859	0		5.56326123046875	0.08507806396484376	0		-0.00827496337890625	5.96287451171875	0		
0.012012584686279297	0.0015197980403900146	0		0.5186306762695313	-2.5190283203125	0		-1.036564208984375	0.03443883895874023	0		-0.882476318359375	-2.567763916015625	0		1.365965576171875	-0.7340217895507812	0		3.13372900390625	-0.09780426025390625	0		4.6362783203125	-0.08090371704101562	0		5.57169775390625	0.10025313568115235	0		0.020928911209106445	5.98433251953125	0		
